<?xml version="1.0" encoding="UTF-8"?>
<svg xmlns="http://www.w3.org/2000/svg" width="21" height="15" viewBox="0 0 21 15"><title>LB</title><defs><linearGradient id="linearGradient-1" x1="50%" x2="50%" y1="0%" y2="100%"><stop offset="0%" stop-color="#fff"/><stop offset="100%" stop-color="#f0f0f0"/></linearGradient><linearGradient id="linearGradient-2" x1="50%" x2="50%" y1="0%" y2="100%"><stop offset="0%" stop-color="#f03340"/><stop offset="100%" stop-color="#eb212e"/></linearGradient><linearGradient id="linearGradient-3" x1="50%" x2="50%" y1="0%" y2="100%"><stop offset="0%" stop-color="#1fc065"/><stop offset="100%" stop-color="#17a555"/></linearGradient></defs><g id="Symbols" fill="none" fill-rule="evenodd" stroke="none" stroke-width="1"><g id="LB"><path id="FlagBackground" fill="url(#linearGradient-1)" d="M0 0h21v15H0z"/><path id="Rectangle-2" fill="url(#linearGradient-2)" d="M0 0h21v4H0z"/><path id="Rectangle-2" fill="url(#linearGradient-2)" d="M0 11h21v4H0z"/><path id="Rectangle-2-Copy-4" fill="url(#linearGradient-1)" d="M0 4h21v7H0z"/><path id="Combined-Shape" fill="url(#linearGradient-3)" d="M9.65 9.35a.497.497 0 0 0-.003-.703l.206.206a.97.97 0 0 0-.837-.232l-1.032.258c-.267.067-.3-.017-.08-.183l1.191-.892c.224-.168.184-.304-.103-.304h-.484c-.28 0-.309-.1-.064-.222l1.112-.556c.245-.123.223-.222-.064-.222h-.484c-.28 0-.323-.138-.103-.304l1.19-.892a.72.72 0 0 1 .81 0l1.19.892c.224.168.184.304-.103.304h-.484c-.28 0-.309.1-.064.222l1.112.556c.245.123.223.222-.064.222h-.484c-.28 0-.323.138-.103.304l1.19.892c.224.168.191.25-.08.183l-1.03-.258a.98.98 0 0 0-.838.232l.206-.206a.496.496 0 0 0-.003.703l.3.3c.193.193.134.35-.145.35h-2.01c-.273 0-.339-.156-.145-.35z"/></g></g></svg>
